<svg width="139" height="32" viewBox="0 0 139 32" fill="none" xmlns="http://www.w3.org/2000/svg">
<g clip-path="url(#clip0_1005_117)">
<path fill-rule="evenodd" clip-rule="evenodd" d="M13.0088 31.6623C14.2336 31.6623 15.236 30.6868 15.236 29.4944V20.8999C15.236 19.7074 14.2336 18.7316 13.0088 18.7316C11.7839 18.7316 10.7816 19.7074 10.7816 20.8999V29.4944C10.7816 30.6868 11.7839 31.6623 13.0088 31.6623Z" fill="#171C8F"/>
<path fill-rule="evenodd" clip-rule="evenodd" d="M4.49294 27.7972C5.28021 28.7105 6.69199 28.8308 7.63014 28.0643L14.3928 22.5399C15.331 21.7735 15.4545 20.399 14.6673 19.4856V19.4853C13.88 18.5719 12.4682 18.4516 11.5297 19.2181L4.76738 24.7425C3.82883 25.509 3.70527 26.8834 4.49294 27.7972Z" fill="#171C8F"/>
<path fill-rule="evenodd" clip-rule="evenodd" d="M19.9061 0H19.9057C18.6813 0 17.679 0.975807 17.679 2.16829V10.7628C17.679 11.9553 18.6813 12.9307 19.9057 12.9307H19.9061C21.131 12.9307 22.1329 11.9553 22.1329 10.7628V2.16829C22.1329 0.975807 21.131 0 19.9061 0Z" fill="#171C8F"/>
<path fill-rule="evenodd" clip-rule="evenodd" d="M28.422 3.86549C27.6347 2.95176 26.2229 2.83147 25.2844 3.59793L18.5221 9.12236C17.5835 9.8892 17.4604 11.2637 18.2477 12.177C19.0349 13.0907 20.4467 13.2107 21.3853 12.4442L28.1475 6.92014C29.0861 6.1533 29.2093 4.77884 28.422 3.86549Z" fill="#171C8F"/>
<path fill-rule="evenodd" clip-rule="evenodd" d="M13.0088 0C14.2336 0 15.236 0.975807 15.236 2.16829V10.7628C15.236 11.9553 14.2336 12.9307 13.0088 12.9307C11.7839 12.9307 10.7816 11.9553 10.7816 10.7628V2.16829C10.7816 0.975807 11.7839 0 13.0088 0Z" fill="#171C8F"/>
<path fill-rule="evenodd" clip-rule="evenodd" d="M4.49294 3.86549C5.28021 2.95176 6.69199 2.83147 7.63014 3.59793L14.3928 9.12236C15.331 9.8892 15.4545 11.2637 14.6673 12.177C13.88 13.0907 12.4682 13.2107 11.5297 12.4442L4.76738 6.92014C3.82883 6.1533 3.70527 4.77884 4.49294 3.86549Z" fill="#171C8F"/>
<path fill-rule="evenodd" clip-rule="evenodd" d="M0.443721 20.7942H0.444117C0.992197 21.8606 2.33666 22.2963 3.43202 21.7627L11.3265 17.9158C12.4215 17.3818 12.869 16.0729 12.3209 15.0065C11.7724 13.9401 10.428 13.5044 9.33259 14.038L1.4385 17.8849C0.343134 18.4185 -0.104359 19.7278 0.443721 20.7942Z" fill="#171C8F"/>
<path fill-rule="evenodd" clip-rule="evenodd" d="M0.182372 11.6499V11.6503C-0.304326 12.7444 0.217221 14.0271 1.3411 14.5014L9.44231 17.9157C10.5662 18.3895 11.8841 17.8818 12.3708 16.7876C12.8575 15.6931 12.336 14.41 11.2121 13.9365L3.11088 10.5218C1.9866 10.048 0.66907 10.5557 0.182372 11.6499Z" fill="#171C8F"/>
<path fill-rule="evenodd" clip-rule="evenodd" d="M23.417 31.9757C23.813 31.9757 24.2522 31.9341 24.7341 31.85C25.0616 31.7999 25.4917 31.6657 26.0255 31.4475C27.1106 30.9953 27.9628 30.3244 28.583 29.4362C29.2027 28.5475 29.5124 27.567 29.5124 26.4941C29.5124 25.3876 29.2027 24.3983 28.583 23.5269C27.9628 22.6383 27.1106 21.9678 26.0255 21.5152C25.6469 21.3475 25.3626 21.2384 25.1733 21.1883L24.3211 20.9369L23.4427 20.635C23.219 20.5679 22.9604 20.4588 22.6678 20.3081C22.4096 20.1403 22.246 19.931 22.1771 19.6792C22.1426 19.5451 22.1256 19.4529 22.1256 19.4028C22.1256 19.2856 22.1601 19.1429 22.229 18.9752L22.2805 18.8746C22.3494 18.7239 22.4697 18.6067 22.642 18.5226L23.1331 18.3468H23.5461L23.7786 18.3969C23.9164 18.4139 24.1231 18.4976 24.3983 18.6483C24.5536 18.7659 24.6482 18.8831 24.6827 19.0007C24.803 19.2686 24.9753 19.4028 25.1991 19.4028H28.0662C28.3073 19.4028 28.501 19.3442 28.6471 19.2266C28.7937 19.1094 28.8669 18.9502 28.8669 18.7489C28.8669 18.5646 28.8325 18.3719 28.7636 18.1706C28.6946 17.9694 28.6515 17.8356 28.6345 17.7681C28.4448 17.2654 28.1608 16.7962 27.7822 16.3601C27.4033 15.958 26.9641 15.5975 26.4647 15.2787C25.9309 14.9602 25.3626 14.7424 24.7599 14.6252C24.1401 14.474 23.5117 14.4154 22.8745 14.449C22.2373 14.4991 21.6607 14.6336 21.1439 14.8515C20.6101 15.0693 20.1194 15.3712 19.6719 15.7567C19.207 16.1589 18.8367 16.6115 18.5611 17.1146C18.1651 17.7851 17.9671 18.5311 17.9671 19.3527C17.9671 19.8049 18.036 20.2579 18.1738 20.7106C18.3287 21.2804 18.6043 21.8252 19.0003 22.3449C19.3963 22.8646 19.887 23.2837 20.4727 23.6021C20.9202 23.8535 21.3593 24.0548 21.7898 24.2055C22.0824 24.3231 22.5042 24.4654 23.0554 24.6331L23.7271 24.8343L24.295 25.0356C24.5706 25.1863 24.7516 25.3039 24.8375 25.3876L25.1733 25.7897L25.3024 26.1922L25.3286 26.4941L25.3024 26.7705L25.1733 27.148L24.8375 27.5501C24.6997 27.7178 24.5191 27.835 24.295 27.9021C23.9853 28.0363 23.6926 28.1033 23.417 28.1033C23.0036 28.1033 22.642 28.0027 22.3323 27.8015C22.1601 27.7178 21.9704 27.5416 21.7641 27.2736C21.6262 27.0724 21.5403 26.9047 21.5055 26.7705C21.4195 26.4019 21.2128 26.2173 20.8857 26.2173H18.7936C18.3976 26.2173 18.0705 26.3179 17.8123 26.5191C17.5541 26.7204 17.4246 26.9883 17.4246 27.3238C17.4246 27.3909 17.442 27.4915 17.4764 27.6256C17.5624 28.0613 17.7517 28.5139 18.0447 28.9835C18.5441 29.8552 19.224 30.5508 20.085 31.0705C20.5843 31.3889 21.1269 31.6237 21.7122 31.7745C22.2979 31.9086 22.8662 31.9757 23.417 31.9757ZM39.3549 31.6488C40.3192 31.6152 41.2145 31.4309 42.041 31.0955C42.833 30.7771 43.5566 30.316 44.2108 29.7126C44.8135 29.1258 45.2954 28.4469 45.657 27.6758C46.0015 26.8546 46.1651 26.033 46.1477 25.2114V16.2845C46.1477 15.8323 46.0059 15.4676 45.7216 15.1908C45.4376 14.9143 45.063 14.7759 44.5981 14.7759H43.5391C43.0742 14.7759 42.6996 14.9143 42.4157 15.1908C42.1317 15.4676 41.9895 15.8323 41.9895 16.2845V25.2368C41.9895 25.6054 41.9294 25.9323 41.8086 26.2173C41.7052 26.469 41.5159 26.7285 41.2403 26.9968C40.9821 27.2482 40.6978 27.4329 40.3881 27.5501C40.061 27.7008 39.7164 27.7764 39.3549 27.7764C38.6143 27.7764 37.9776 27.5416 37.4437 27.0724C36.8925 26.5693 36.6173 25.9744 36.6173 25.2869V16.2845C36.6173 15.8323 36.4751 15.4676 36.1907 15.1908C35.9068 14.9143 35.5322 14.7759 35.0673 14.7759H34.0341C33.5692 14.7759 33.1945 14.9143 32.9106 15.1908C32.6266 15.4676 32.4845 15.8323 32.4845 16.2845V25.312C32.4845 26.1671 32.6651 26.9883 33.0266 27.7764C33.3367 28.5139 33.8361 29.2014 34.5247 29.8383C35.1964 30.442 35.9282 30.8862 36.7202 31.1711C37.4952 31.4896 38.3561 31.6488 39.3034 31.6488H39.3549ZM55.1134 31.9757C55.5094 31.9757 55.9486 31.9341 56.4305 31.85C56.758 31.7999 57.1881 31.6657 57.7219 31.4475C58.807 30.9953 59.6592 30.3244 60.2793 29.4362C60.8991 28.5475 61.2088 27.567 61.2088 26.4941C61.2088 25.3876 60.8991 24.3983 60.2793 23.5269C59.6592 22.6383 58.807 21.9678 57.7219 21.5152C57.3433 21.3475 57.059 21.2384 56.8697 21.1883L56.0175 20.9369L55.1391 20.635C54.9154 20.5679 54.6572 20.4588 54.3641 20.3081C54.1059 20.1403 53.9424 19.931 53.8735 19.6792C53.839 19.5451 53.822 19.4529 53.822 19.4028C53.822 19.2856 53.8564 19.1429 53.9253 18.9752L53.9768 18.8746C54.0457 18.7239 54.1661 18.6067 54.3384 18.5226L54.829 18.3468H55.2425L55.4749 18.3969C55.6127 18.4139 55.8195 18.4976 56.0947 18.6483C56.2499 18.7659 56.3446 18.8831 56.379 19.0007C56.4994 19.2686 56.6717 19.4028 56.8954 19.4028H59.7625C60.0037 19.4028 60.1974 19.3442 60.3439 19.2266C60.49 19.1094 60.5633 18.9502 60.5633 18.7489C60.5633 18.5646 60.5288 18.3719 60.4599 18.1706C60.391 17.9694 60.3478 17.8356 60.3308 17.7681C60.1411 17.2654 59.8572 16.7962 59.4782 16.3601C59.0996 15.958 58.6604 15.5975 58.1611 15.2787C57.6272 14.9602 57.059 14.7424 56.4562 14.6252C55.8365 14.474 55.208 14.4154 54.5708 14.449C53.9336 14.4991 53.3571 14.6336 52.8403 14.8515C52.3064 15.0693 51.8158 15.3712 51.3683 15.7567C50.9034 16.1589 50.5331 16.6115 50.2575 17.1146C49.8615 17.7851 49.6635 18.5311 49.6635 19.3527C49.6635 19.8049 49.7324 20.2579 49.8702 20.7106C50.025 21.2804 50.3006 21.8252 50.6966 22.3449C51.0927 22.8646 51.5833 23.2837 52.169 23.6021C52.6165 23.8535 53.0557 24.0548 53.4862 24.2055C53.7788 24.3231 54.2006 24.4654 54.7518 24.6331L55.4234 24.8343L55.9913 25.0356C56.2669 25.1863 56.4479 25.3039 56.5339 25.3876L56.8697 25.7897L56.9988 26.1922L57.0245 26.4941L56.9988 26.7705L56.8697 27.148L56.5339 27.5501C56.396 27.7178 56.2155 27.835 55.9913 27.9021C55.6816 28.0363 55.389 28.1033 55.1134 28.1033C54.6999 28.1033 54.3384 28.0027 54.0283 27.8015C53.8564 27.7178 53.6667 27.5416 53.4604 27.2736C53.3226 27.0724 53.2367 26.9047 53.2022 26.7705C53.1159 26.4019 52.9092 26.2173 52.5821 26.2173H50.4899C50.0939 26.2173 49.7668 26.3179 49.5082 26.5191C49.25 26.7204 49.1209 26.9883 49.1209 27.3238C49.1209 27.3909 49.1383 27.4915 49.1728 27.6256C49.2587 28.0613 49.448 28.5139 49.7411 28.9835C50.2404 29.8552 50.9204 30.5508 51.7813 31.0705C52.2807 31.3889 52.8232 31.6237 53.4085 31.7745C53.9942 31.9086 54.5625 31.9757 55.1134 31.9757ZM68.3196 18.6988C68.7674 18.7154 69.1935 18.8118 69.5983 18.988C70.003 19.1638 70.3558 19.3943 70.6572 19.6792C70.9586 19.9645 71.191 20.2996 71.3546 20.6851C71.5181 21.0707 71.6001 21.4732 71.6001 21.8923C71.6001 22.3279 71.5181 22.7347 71.3546 23.1117C71.191 23.4892 70.9586 23.82 70.6572 24.1053C70.3558 24.3902 70.003 24.6207 69.5983 24.7965C69.1935 24.9727 68.7674 25.0691 68.3196 25.0857V18.6988ZM75.7487 21.8923C75.7487 20.9199 75.559 20.0147 75.1805 19.1765C74.7844 18.3217 74.2506 17.5753 73.579 16.9384C72.8729 16.268 72.0896 15.7567 71.2287 15.4043C70.3333 15.0358 69.3603 14.8345 68.3097 14.801H65.7269C65.2619 14.801 64.8873 14.9394 64.6034 15.2162C64.3194 15.4926 64.1773 15.8574 64.1773 16.31V30.1402C64.1773 30.5928 64.3194 30.9575 64.6034 31.2339C64.8873 31.5108 65.2619 31.6488 65.7269 31.6488H66.941C67.3541 31.6488 67.6855 31.5273 67.9354 31.2844C68.1849 31.0412 68.3097 30.71 68.3097 30.2909V28.9581C69.3947 28.9245 70.3677 28.7322 71.2287 28.3802C72.1411 27.9942 72.9248 27.483 73.579 26.8461C74.2506 26.2092 74.7844 25.4631 75.1805 24.608C75.559 23.8034 75.7487 22.8981 75.7487 21.8923ZM87.6425 30.6683C87.7629 30.9698 87.9566 31.2089 88.2235 31.3847C88.4908 31.5609 88.7791 31.6488 89.0888 31.6488H90.2253C90.7421 31.6488 91.1381 31.5358 91.4134 31.3095C91.689 31.0832 91.8268 30.769 91.8268 30.3665C91.8268 30.1822 91.7836 29.9474 91.6977 29.6625L86.9194 15.8323C86.8161 15.5135 86.6307 15.2621 86.3638 15.0778C86.0969 14.8931 85.7916 14.801 85.447 14.801H83.7165C83.3894 14.801 83.0924 14.8931 82.8255 15.0778C82.5585 15.2621 82.3736 15.5054 82.2702 15.8069L77.2334 29.6374C77.1304 29.9054 77.0785 30.1486 77.0785 30.3665C77.0785 30.769 77.2207 31.0832 77.5046 31.3095C77.789 31.5358 78.1893 31.6488 78.7057 31.6488H79.8423C80.1694 31.6488 80.4621 31.5609 80.7203 31.3847C80.9789 31.2089 81.1681 30.9783 81.2885 30.6934L82.1926 28.4052H86.7642L87.6425 30.6683ZM84.5049 21.6409L85.7448 24.7086L83.1621 24.7337L84.5049 21.6409ZM98.7118 18.7489C99.1597 18.7659 99.5815 18.8411 99.9775 18.9752C100.374 19.1094 100.727 19.2814 101.036 19.4907C101.347 19.7004 101.583 19.9433 101.747 20.2202C101.91 20.4966 101.992 20.7942 101.992 21.1127C101.992 21.4311 101.91 21.733 101.747 22.0179C101.583 22.3029 101.347 22.5546 101.036 22.7724C100.727 22.9903 100.374 23.1622 99.9775 23.2879C99.5815 23.4136 99.1597 23.4849 98.7118 23.5015V18.7489ZM102.457 30.9698C102.595 31.1711 102.784 31.3346 103.025 31.4603C103.266 31.5859 103.516 31.6488 103.774 31.6488H105.376C105.858 31.6488 106.228 31.5651 106.486 31.3974C106.745 31.2297 106.874 30.9953 106.874 30.6934C106.874 30.3749 106.745 30.031 106.486 29.6625L103.826 25.6389C104.584 25.0522 105.16 24.3817 105.557 23.6272C105.953 22.8226 106.151 21.9844 106.151 21.1127C106.151 20.241 105.961 19.4363 105.582 18.6988C105.204 17.9778 104.67 17.324 103.981 16.7376C103.31 16.1508 102.526 15.6981 101.63 15.3793C100.735 15.0608 99.7625 14.885 98.7118 14.8515H96.1291C95.6641 14.8515 95.2895 14.9895 95.0056 15.2663C94.7212 15.5428 94.5795 15.9075 94.5795 16.3601V30.1402C94.5795 30.5928 94.7212 30.9575 95.0056 31.2339C95.2895 31.5108 95.6641 31.6488 96.1291 31.6488H97.1623C97.6272 31.6488 98.0014 31.5108 98.2857 31.2339C98.5697 30.9575 98.7118 30.5928 98.7118 30.1402V27.3993L100.029 27.2987L102.457 30.9698ZM115.78 31.9757C116.176 31.9757 116.615 31.9341 117.097 31.85C117.424 31.7999 117.854 31.6657 118.388 31.4475C119.473 30.9953 120.326 30.3244 120.945 29.4362C121.565 28.5475 121.875 27.567 121.875 26.4941C121.875 25.3876 121.565 24.3983 120.945 23.5269C120.326 22.6383 119.473 21.9678 118.388 21.5152C118.01 21.3475 117.725 21.2384 117.536 21.1883L116.684 20.9369L115.805 20.635C115.582 20.5679 115.323 20.4588 115.03 20.3081C114.772 20.1403 114.609 19.931 114.54 19.6792C114.505 19.5451 114.488 19.4529 114.488 19.4028C114.488 19.2856 114.523 19.1429 114.592 18.9752L114.643 18.8746C114.712 18.7239 114.832 18.6067 115.005 18.5226L115.496 18.3468H115.909L116.141 18.3969C116.279 18.4139 116.486 18.4976 116.761 18.6483C116.916 18.7659 117.011 18.8831 117.045 19.0007C117.166 19.2686 117.338 19.4028 117.562 19.4028H120.429C120.67 19.4028 120.864 19.3442 121.01 19.2266C121.156 19.1094 121.23 18.9502 121.23 18.7489C121.23 18.5646 121.195 18.3719 121.126 18.1706C121.057 17.9694 121.014 17.8356 120.997 17.7681C120.807 17.2654 120.524 16.7962 120.145 16.3601C119.766 15.958 119.327 15.5975 118.827 15.2787C118.294 14.9602 117.725 14.7424 117.123 14.6252C116.503 14.474 115.874 14.4154 115.237 14.449C114.6 14.4991 114.023 14.6336 113.507 14.8515C112.973 15.0693 112.482 15.3712 112.034 15.7567C111.57 16.1589 111.199 16.6115 110.924 17.1146C110.528 17.7851 110.33 18.5311 110.33 19.3527C110.33 19.8049 110.399 20.2579 110.537 20.7106C110.691 21.2804 110.967 21.8252 111.363 22.3449C111.759 22.8646 112.25 23.2837 112.835 23.6021C113.283 23.8535 113.722 24.0548 114.153 24.2055C114.445 24.3231 114.867 24.4654 115.418 24.6331L116.09 24.8343L116.658 25.0356C116.933 25.1863 117.114 25.3039 117.2 25.3876L117.536 25.7897L117.665 26.1922L117.691 26.4941L117.665 26.7705L117.536 27.148L117.2 27.5501C117.062 27.7178 116.881 27.835 116.658 27.9021C116.348 28.0363 116.055 28.1033 115.78 28.1033C115.366 28.1033 115.005 28.0027 114.695 27.8015C114.523 27.7178 114.333 27.5416 114.127 27.2736C113.989 27.0724 113.903 26.9047 113.868 26.7705C113.782 26.4019 113.576 26.2173 113.248 26.2173H111.156C110.76 26.2173 110.433 26.3179 110.175 26.5191C109.916 26.7204 109.787 26.9883 109.787 27.3238C109.787 27.3909 109.805 27.4915 109.839 27.6256C109.925 28.0613 110.114 28.5139 110.407 28.9835C110.906 29.8552 111.587 30.5508 112.448 31.0705C112.947 31.3889 113.49 31.6237 114.075 31.7745C114.661 31.9086 115.228 31.9757 115.78 31.9757ZM134.707 30.6683C134.827 30.9698 135.021 31.2089 135.288 31.3847C135.555 31.5609 135.843 31.6488 136.153 31.6488H137.289C137.806 31.6488 138.202 31.5358 138.478 31.3095C138.753 31.0832 138.891 30.769 138.891 30.3665C138.891 30.1822 138.848 29.9474 138.762 29.6625L133.983 15.8323C133.88 15.5135 133.695 15.2621 133.428 15.0778C133.161 14.8931 132.855 14.801 132.511 14.801H130.781C130.454 14.801 130.157 14.8931 129.889 15.0778C129.623 15.2621 129.437 15.5054 129.334 15.8069L124.298 29.6374C124.194 29.9054 124.143 30.1486 124.143 30.3665C124.143 30.769 124.284 31.0832 124.569 31.3095C124.853 31.5358 125.253 31.6488 125.77 31.6488H126.906C127.234 31.6488 127.526 31.5609 127.784 31.3847C128.043 31.2089 128.232 30.9783 128.353 30.6934L129.257 28.4052H133.828L134.707 30.6683ZM131.604 21.6409L132.844 24.7086L130.261 24.7337L131.604 21.6409Z" fill="#171C8F"/>
</g>
</svg>
